<svg xmlns="http://www.w3.org/2000/svg" xmlns:xlink="http://www.w3.org/1999/xlink" width="2000" zoomAndPan="magnify" viewBox="0 0 1500 1499.999933" height="2000" preserveAspectRatio="xMidYMid meet" version="1.0"><defs><g/><clipPath id="3043cb71be"><rect x="0" width="1377" y="0" height="1500"/></clipPath><clipPath id="f2c3d646cf"><path d="M 1272.058594 156.484375 L 1480.648438 156.484375 L 1480.648438 365 L 1272.058594 365 Z M 1272.058594 156.484375 " clip-rule="nonzero"/></clipPath><clipPath id="d65285099c"><rect x="0" width="1481" y="0" height="1500"/></clipPath></defs><g transform="matrix(1, 0, 0, 1, 0, 0.000000000000112861)"><g clip-path="url(#d65285099c)"><g transform="matrix(1, 0, 0, 1, 0, 0.000000000000112861)"><g clip-path="url(#3043cb71be)"><g fill="#beff48" fill-opacity="1"><g transform="translate(-22.820819, 1405.426307)"><g><path d="M 961.992188 -660.589844 C 961.992188 -781.707031 932.34375 -873.300781 873.039062 -935.375 C 814.191406 -996.976562 727.625 -1027.773438 613.335938 -1027.773438 L 455.832031 -1027.773438 L 455.832031 -1064.539062 L 492.597656 -1064.539062 L 492.597656 -240.886719 L 455.832031 -240.886719 L 455.832031 -277.652344 L 649.46875 -277.652344 C 746.125 -277.652344 821.96875 -310.484375 877.007812 -376.144531 C 933.664062 -443.742188 961.992188 -538.558594 961.992188 -660.589844 Z M 1035.519531 -660.589844 C 1035.519531 -520.730469 1001.464844 -410.171875 933.355469 -328.914062 C 863.625 -245.71875 768.996094 -204.125 649.46875 -204.125 L 419.070312 -204.125 L 419.070312 -1101.300781 L 613.335938 -1101.300781 C 748.585938 -1101.300781 852.875 -1062.921875 926.207031 -986.167969 C 999.082031 -909.882812 1035.519531 -801.359375 1035.519531 -660.589844 Z M 1346.820312 -660.589844 C 1346.820312 -520.515625 1319.167969 -397.777344 1263.863281 -292.367188 C 1207.945312 -185.800781 1128.753906 -104.179688 1026.277344 -47.507812 C 924.695312 8.671875 807.433594 36.765625 674.484375 36.765625 L 109.621094 36.765625 L 109.621094 -1342.191406 L 618.894531 -1342.191406 C 849.019531 -1342.191406 1027.675781 -1283.175781 1154.863281 -1165.140625 C 1282.835938 -1046.382812 1346.820312 -878.195312 1346.820312 -660.589844 Z M 1273.292969 -660.589844 C 1273.292969 -856.8125 1217.144531 -1007.03125 1104.847656 -1111.246094 C 991.765625 -1216.191406 829.78125 -1268.664062 618.894531 -1268.664062 L 146.386719 -1268.664062 L 146.386719 -1305.425781 L 183.148438 -1305.425781 L 183.148438 0 L 146.386719 0 L 146.386719 -36.765625 L 674.484375 -36.765625 C 794.78125 -36.765625 900.183594 -61.792969 990.691406 -111.847656 C 1080.3125 -161.414062 1149.664062 -232.972656 1198.753906 -326.527344 C 1248.449219 -421.242188 1273.292969 -532.59375 1273.292969 -660.589844 Z M 1273.292969 -660.589844 "/></g></g></g><g fill="#beff48" fill-opacity="1"><g transform="translate(-22.820819, 1405.426307)"><g><path d="M 998.75 -660.59375 C 998.75 -791.53125 965.703125 -891.585938 899.609375 -960.765625 C 833.523438 -1029.941406 738.101562 -1064.53125 613.34375 -1064.53125 L 455.828125 -1064.53125 L 455.828125 -240.890625 L 649.46875 -240.890625 C 757.5625 -240.890625 842.796875 -278.101562 905.171875 -352.53125 C 967.554688 -426.957031 998.75 -529.644531 998.75 -660.59375 Z M 1310.0625 -660.59375 C 1310.0625 -526.5625 1283.804688 -409.515625 1231.296875 -309.453125 C 1178.796875 -209.390625 1104.523438 -132.796875 1008.484375 -79.671875 C 912.441406 -26.554688 801.109375 0 674.484375 0 L 146.390625 0 L 146.390625 -1305.421875 L 618.890625 -1305.421875 C 839.398438 -1305.421875 1009.722656 -1249.675781 1129.859375 -1138.1875 C 1249.992188 -1026.707031 1310.0625 -867.507812 1310.0625 -660.59375 Z M 1310.0625 -660.59375 "/></g></g></g></g></g><path fill="#beff48" d="M 1377.78125 260.714844 C 1389.726562 260.714844 1397.539062 254.226562 1397.539062 242.28125 C 1397.539062 230.335938 1389.726562 224.585938 1377.484375 224.585938 L 1358.460938 224.585938 L 1358.460938 260.714844 Z M 1341.503906 209.101562 L 1378.515625 209.101562 C 1400.636719 209.101562 1414.792969 220.898438 1414.792969 241.984375 C 1414.792969 257.914062 1405.945312 267.941406 1393.410156 272.363281 L 1417.597656 312.328125 L 1397.835938 312.328125 L 1376.011719 275.902344 C 1375.863281 275.757812 1370.554688 275.902344 1370.40625 275.902344 L 1358.460938 275.902344 L 1358.460938 312.328125 L 1341.503906 312.328125 L 1341.503906 209.101562 " fill-opacity="1" fill-rule="nonzero"/><g clip-path="url(#f2c3d646cf)"><path fill="#beff48" d="M 1376.230469 174.359375 C 1364.578125 174.359375 1353.277344 176.640625 1342.644531 181.136719 C 1332.367188 185.484375 1323.140625 191.707031 1315.210938 199.636719 C 1307.28125 207.5625 1301.058594 216.792969 1296.710938 227.066406 C 1292.214844 237.703125 1289.933594 249 1289.933594 260.65625 C 1289.933594 272.308594 1292.214844 283.609375 1296.710938 294.242188 C 1301.058594 304.519531 1307.28125 313.75 1315.210938 321.675781 C 1323.140625 329.605469 1332.367188 335.828125 1342.644531 340.175781 C 1353.277344 344.671875 1364.578125 346.953125 1376.230469 346.953125 C 1387.886719 346.953125 1399.1875 344.671875 1409.820312 340.175781 C 1420.09375 335.828125 1429.324219 329.605469 1437.253906 321.675781 C 1445.179688 313.75 1451.402344 304.519531 1455.75 294.242188 C 1460.246094 283.609375 1462.527344 272.308594 1462.527344 260.65625 C 1462.527344 249 1460.246094 237.703125 1455.75 227.066406 C 1451.402344 216.792969 1445.179688 207.5625 1437.253906 199.636719 C 1429.324219 191.707031 1420.09375 185.484375 1409.820312 181.136719 C 1399.1875 176.640625 1387.886719 174.359375 1376.230469 174.359375 Z M 1376.230469 364.839844 C 1362.171875 364.839844 1348.527344 362.082031 1335.675781 356.648438 C 1323.269531 351.398438 1312.128906 343.886719 1302.5625 334.324219 C 1293 324.757812 1285.488281 313.617188 1280.242188 301.210938 C 1274.804688 288.359375 1272.046875 274.714844 1272.046875 260.65625 C 1272.046875 246.59375 1274.804688 232.949219 1280.242188 220.101562 C 1285.488281 207.695312 1293 196.554688 1302.5625 186.988281 C 1312.128906 177.421875 1323.269531 169.910156 1335.675781 164.664062 C 1348.527344 159.230469 1362.171875 156.472656 1376.230469 156.472656 C 1390.292969 156.472656 1403.9375 159.230469 1416.785156 164.664062 C 1429.191406 169.910156 1440.335938 177.421875 1449.898438 186.988281 C 1459.464844 196.554688 1466.976562 207.695312 1472.222656 220.101562 C 1477.65625 232.949219 1480.414062 246.59375 1480.414062 260.65625 C 1480.414062 274.714844 1477.65625 288.359375 1472.222656 301.210938 C 1466.976562 313.617188 1459.464844 324.757812 1449.898438 334.324219 C 1440.335938 343.886719 1429.191406 351.398438 1416.785156 356.648438 C 1403.9375 362.082031 1390.292969 364.839844 1376.230469 364.839844 " fill-opacity="1" fill-rule="nonzero"/></g></g></g></svg>