<svg xmlns="http://www.w3.org/2000/svg" xmlns:xlink="http://www.w3.org/1999/xlink" width="2000" zoomAndPan="magnify" viewBox="0 0 1500 599.999999" height="800" preserveAspectRatio="xMidYMid meet" version="1.0"><defs><g/><clipPath id="4ed4206f62"><rect x="0" width="1423" y="0" height="490"/></clipPath><clipPath id="c20718b297"><path d="M 1431.320312 145.152344 L 1486.070312 145.152344 L 1486.070312 199.902344 L 1431.320312 199.902344 Z M 1431.320312 145.152344 " clip-rule="nonzero"/></clipPath><clipPath id="2806dd8666"><path d="M 859.972656 144.402344 L 1237.464844 144.402344 L 1237.464844 216.25 L 859.972656 216.25 Z M 859.972656 144.402344 " clip-rule="nonzero"/></clipPath><clipPath id="0ded295690"><path d="M 0.972656 0.402344 L 378.464844 0.402344 L 378.464844 72.25 L 0.972656 72.25 Z M 0.972656 0.402344 " clip-rule="nonzero"/></clipPath><clipPath id="f2f78ddc12"><rect x="0" width="379" y="0" height="73"/></clipPath></defs><g transform="matrix(1, 0, 0, 1, 6, 7)"><g clip-path="url(#4ed4206f62)"><g fill="#beff48" fill-opacity="1"><g transform="translate(2.141574, 397.377403)"><g><path d="M 186.238281 -127.886719 C 186.238281 -151.335938 180.5 -169.070312 169.019531 -181.085938 C 157.625 -193.011719 140.867188 -198.972656 118.742188 -198.972656 L 88.25 -198.972656 L 88.25 -206.09375 L 95.367188 -206.09375 L 95.367188 -46.636719 L 88.25 -46.636719 L 88.25 -53.753906 L 125.734375 -53.753906 C 144.449219 -53.753906 159.132812 -60.109375 169.785156 -72.820312 C 180.753906 -85.90625 186.238281 -104.261719 186.238281 -127.886719 Z M 200.472656 -127.886719 C 200.472656 -100.8125 193.882812 -79.410156 180.695312 -63.675781 C 167.195312 -47.570312 148.875 -39.519531 125.734375 -39.519531 L 81.128906 -39.519531 L 81.128906 -213.210938 L 118.742188 -213.210938 C 144.925781 -213.210938 165.113281 -205.78125 179.3125 -190.917969 C 193.417969 -176.152344 200.472656 -155.140625 200.472656 -127.886719 Z M 260.742188 -127.886719 C 260.742188 -100.769531 255.386719 -77.007812 244.679688 -56.601562 C 233.855469 -35.96875 218.523438 -20.167969 198.683594 -9.195312 C 179.019531 1.679688 156.316406 7.117188 130.578125 7.117188 L 21.222656 7.117188 L 21.222656 -259.84375 L 119.816406 -259.84375 C 164.367188 -259.84375 198.957031 -248.417969 223.578125 -225.570312 C 248.355469 -202.578125 260.742188 -170.015625 260.742188 -127.886719 Z M 246.507812 -127.886719 C 246.507812 -165.875 235.636719 -194.957031 213.894531 -215.132812 C 192.003906 -235.453125 160.644531 -245.609375 119.816406 -245.609375 L 28.339844 -245.609375 L 28.339844 -252.726562 L 35.457031 -252.726562 L 35.457031 0 L 28.339844 0 L 28.339844 -7.117188 L 130.578125 -7.117188 C 153.867188 -7.117188 174.273438 -11.964844 191.796875 -21.652344 C 209.144531 -31.25 222.570312 -45.101562 232.074219 -63.214844 C 241.695312 -81.550781 246.507812 -103.109375 246.507812 -127.886719 Z M 246.507812 -127.886719 "/></g></g></g><g fill="#beff48" fill-opacity="1"><g transform="translate(272.984721, 397.377403)"><g><path d="M 157.71875 -175.957031 C 157.71875 -184.980469 154.957031 -191.796875 149.425781 -196.414062 C 143.511719 -201.347656 134.539062 -203.816406 122.507812 -203.816406 L 88.25 -203.816406 L 88.25 -210.933594 L 95.367188 -210.933594 L 95.367188 -139.1875 L 88.25 -139.1875 L 88.25 -146.304688 L 123.941406 -146.304688 C 134.914062 -146.304688 143.339844 -148.953125 149.222656 -154.25 C 154.886719 -159.355469 157.71875 -166.589844 157.71875 -175.957031 Z M 171.957031 -175.957031 C 171.957031 -162.367188 167.554688 -151.605469 158.75 -143.675781 C 150.160156 -135.9375 138.558594 -132.070312 123.941406 -132.070312 L 81.128906 -132.070312 L 81.128906 -218.050781 L 122.507812 -218.050781 C 137.980469 -218.050781 149.992188 -214.480469 158.546875 -207.339844 C 167.484375 -199.878906 171.957031 -189.417969 171.957031 -175.957031 Z M 232.042969 -176.316406 C 232.042969 -156.894531 226.890625 -140.445312 216.589844 -126.972656 C 206.359375 -113.597656 191.988281 -103.929688 173.472656 -97.972656 L 171.292969 -104.75 L 177.285156 -108.59375 L 251.585938 7.117188 L 167.160156 7.117188 L 109.332031 -94.226562 L 115.511719 -97.753906 L 115.511719 -90.636719 L 88.25 -90.636719 L 88.25 -97.753906 L 95.367188 -97.753906 L 95.367188 7.117188 L 21.222656 7.117188 L 21.222656 -259.84375 L 128.785156 -259.84375 C 161.535156 -259.84375 186.808594 -252.75 204.609375 -238.5625 C 222.898438 -223.984375 232.042969 -203.234375 232.042969 -176.316406 Z M 217.808594 -176.316406 C 217.808594 -198.664062 210.449219 -215.703125 195.738281 -227.429688 C 180.53125 -239.550781 158.214844 -245.609375 128.785156 -245.609375 L 28.339844 -245.609375 L 28.339844 -252.726562 L 35.457031 -252.726562 L 35.457031 0 L 28.339844 0 L 28.339844 -7.117188 L 88.25 -7.117188 L 88.25 0 L 81.128906 0 L 81.128906 -104.871094 L 119.644531 -104.871094 L 177.476562 -3.527344 L 171.292969 0 L 171.292969 -7.117188 L 238.558594 -7.117188 L 238.558594 0 L 232.566406 3.84375 L 160.304688 -108.691406 L 169.117188 -111.527344 C 184.800781 -116.570312 196.855469 -124.601562 205.28125 -135.621094 C 213.632812 -146.539062 217.808594 -160.105469 217.808594 -176.316406 Z M 217.808594 -176.316406 "/></g></g></g><g fill="#beff48" fill-opacity="1"><g transform="translate(512.797491, 397.377403)"><g><path d="M 188.585938 2.28125 L 167.960938 -58.703125 L 174.703125 -60.984375 L 174.703125 -53.867188 L 82.507812 -53.867188 L 82.507812 -60.984375 L 89.257812 -58.722656 L 67.179688 7.117188 L -7.25 7.117188 L 88.621094 -259.84375 L 168.769531 -259.84375 L 264.640625 7.117188 L 190.222656 7.117188 Z M 202.070312 -2.28125 L 195.328125 0 L 195.328125 -7.117188 L 254.519531 -7.117188 L 254.519531 0 L 247.820312 2.40625 L 157.0625 -250.320312 L 163.761719 -252.726562 L 163.761719 -245.609375 L 93.628906 -245.609375 L 93.628906 -252.726562 L 100.328125 -250.320312 L 9.570312 2.40625 L 2.871094 0 L 2.871094 -7.117188 L 62.0625 -7.117188 L 62.0625 0 L 55.3125 -2.261719 L 77.386719 -68.101562 L 179.808594 -68.101562 Z M 135.359375 -208.070312 C 132.5625 -196.035156 129.222656 -184.003906 125.332031 -171.976562 L 102.171875 -102.847656 L 95.421875 -105.109375 L 95.421875 -112.226562 L 162.328125 -112.226562 L 162.328125 -105.109375 L 155.578125 -102.847656 L 132.441406 -171.902344 C 128.542969 -183.957031 125.136719 -195.992188 122.226562 -208.003906 L 129.144531 -209.679688 L 129.144531 -202.5625 L 128.425781 -202.5625 L 128.425781 -209.679688 Z M 122.773438 -216.796875 L 134.742188 -216.796875 L 136.0625 -211.355469 C 138.890625 -199.691406 142.179688 -188.046875 145.9375 -176.425781 L 172.21875 -97.992188 L 85.53125 -97.992188 L 111.789062 -176.355469 C 115.554688 -188 118.789062 -199.648438 121.492188 -211.289062 Z M 122.773438 -216.796875 "/></g></g></g><g fill="#beff48" fill-opacity="1"><g transform="translate(771.085072, 397.377403)"><g><path d="M 95.722656 -205.375 L 95.722656 -140.445312 L 88.605469 -140.445312 L 88.605469 -147.5625 L 182.179688 -147.5625 L 182.179688 -87.765625 L 88.605469 -87.765625 L 88.605469 -94.886719 L 95.722656 -94.886719 L 95.722656 7.117188 L 21.222656 7.117188 L 21.222656 -259.84375 L 186.304688 -259.84375 L 186.304688 -198.257812 L 88.605469 -198.257812 L 88.605469 -205.375 Z M 81.488281 -212.492188 L 179.1875 -212.492188 L 179.1875 -205.375 L 172.070312 -205.375 L 172.070312 -252.726562 L 179.1875 -252.726562 L 179.1875 -245.609375 L 28.339844 -245.609375 L 28.339844 -252.726562 L 35.457031 -252.726562 L 35.457031 0 L 28.339844 0 L 28.339844 -7.117188 L 88.605469 -7.117188 L 88.605469 0 L 81.488281 0 L 81.488281 -102.003906 L 175.0625 -102.003906 L 175.0625 -94.886719 L 167.945312 -94.886719 L 167.945312 -140.445312 L 175.0625 -140.445312 L 175.0625 -133.328125 L 81.488281 -133.328125 Z M 81.488281 -212.492188 "/></g></g></g><g fill="#beff48" fill-opacity="1"><g transform="translate(964.621332, 397.377403)"><g><path d="M 144.691406 -205.375 L 144.691406 7.117188 L 70.546875 7.117188 L 70.546875 -205.375 L 77.664062 -205.375 L 77.664062 -198.257812 L -1.914062 -198.257812 L -1.914062 -259.84375 L 217.15625 -259.84375 L 217.15625 -198.257812 L 137.574219 -198.257812 L 137.574219 -205.375 Z M 130.457031 -212.492188 L 210.039062 -212.492188 L 210.039062 -205.375 L 202.921875 -205.375 L 202.921875 -252.726562 L 210.039062 -252.726562 L 210.039062 -245.609375 L 5.203125 -245.609375 L 5.203125 -252.726562 L 12.320312 -252.726562 L 12.320312 -205.375 L 5.203125 -205.375 L 5.203125 -212.492188 L 84.78125 -212.492188 L 84.78125 0 L 77.664062 0 L 77.664062 -7.117188 L 137.574219 -7.117188 L 137.574219 0 L 130.457031 0 Z M 130.457031 -212.492188 "/></g></g></g><g fill="#beff48" fill-opacity="1"><g transform="translate(1185.062542, 397.377403)"><g><path d="M 148.277344 -101.34375 L 148.277344 7.117188 L 74.496094 7.117188 L 74.496094 -101.34375 L 81.613281 -101.34375 L 75.367188 -97.929688 L -13.074219 -259.84375 L 67.445312 -259.84375 L 119.066406 -151.761719 L 112.640625 -148.695312 L 106.238281 -151.796875 L 158.582031 -259.84375 L 236.039062 -259.84375 L 147.40625 -97.925781 L 141.160156 -101.34375 Z M 134.042969 -103.164062 L 217.785156 -256.144531 L 224.027344 -252.726562 L 224.027344 -245.609375 L 163.042969 -245.609375 L 163.042969 -252.726562 L 169.449219 -249.625 L 112.597656 -132.277344 L 56.535156 -249.660156 L 62.957031 -252.726562 L 62.957031 -245.609375 L -1.078125 -245.609375 L -1.078125 -252.726562 L 5.171875 -256.140625 L 88.730469 -103.160156 L 88.730469 0 L 81.613281 0 L 81.613281 -7.117188 L 141.160156 -7.117188 L 141.160156 0 L 134.042969 0 Z M 134.042969 -103.164062 "/></g></g></g><g fill="#beff48" fill-opacity="1"><g transform="translate(2.141574, 397.377403)"><g><path d="M 193.359375 -127.890625 C 193.359375 -153.242188 186.957031 -172.613281 174.15625 -186 C 161.363281 -199.394531 142.890625 -206.09375 118.734375 -206.09375 L 88.25 -206.09375 L 88.25 -46.640625 L 125.734375 -46.640625 C 146.660156 -46.640625 163.160156 -53.84375 175.234375 -68.25 C 187.316406 -82.65625 193.359375 -102.535156 193.359375 -127.890625 Z M 253.625 -127.890625 C 253.625 -101.941406 248.539062 -79.28125 238.375 -59.90625 C 228.207031 -40.53125 213.828125 -25.703125 195.234375 -15.421875 C 176.640625 -5.140625 155.085938 0 130.578125 0 L 28.34375 0 L 28.34375 -252.734375 L 119.8125 -252.734375 C 162.5 -252.734375 195.472656 -241.941406 218.734375 -220.359375 C 241.992188 -198.773438 253.625 -167.953125 253.625 -127.890625 Z M 253.625 -127.890625 "/></g></g><g transform="translate(272.984733, 397.377403)"><g><path d="M 164.84375 -175.953125 C 164.84375 -187.191406 161.222656 -195.832031 153.984375 -201.875 C 146.753906 -207.914062 136.257812 -210.9375 122.5 -210.9375 L 88.25 -210.9375 L 88.25 -139.1875 L 123.9375 -139.1875 C 136.738281 -139.1875 146.753906 -142.441406 153.984375 -148.953125 C 161.222656 -155.472656 164.84375 -164.472656 164.84375 -175.953125 Z M 224.921875 -176.3125 C 224.921875 -158.5 220.253906 -143.492188 210.921875 -131.296875 C 201.597656 -119.097656 188.390625 -110.25 171.296875 -104.75 L 238.5625 0 L 171.296875 0 L 115.515625 -97.75 L 88.25 -97.75 L 88.25 0 L 28.34375 0 L 28.34375 -252.734375 L 128.78125 -252.734375 C 159.875 -252.734375 183.671875 -246.15625 200.171875 -233 C 216.671875 -219.84375 224.921875 -200.945312 224.921875 -176.3125 Z M 224.921875 -176.3125 "/></g></g><g transform="translate(512.797516, 397.377403)"><g><path d="M 195.328125 0 L 174.703125 -60.984375 L 82.515625 -60.984375 L 62.0625 0 L 2.875 0 L 93.625 -252.734375 L 163.765625 -252.734375 L 254.515625 0 Z M 128.421875 -209.6875 C 125.671875 -197.84375 122.382812 -186.003906 118.5625 -174.171875 L 95.421875 -105.109375 L 162.328125 -105.109375 L 139.1875 -174.171875 C 135.363281 -186.003906 132.015625 -197.84375 129.140625 -209.6875 Z M 128.421875 -209.6875 "/></g></g></g><g fill="#beff48" fill-opacity="1"><g transform="translate(771.085086, 397.377403)"><g><path d="M 88.609375 -205.375 L 88.609375 -140.4375 L 175.0625 -140.4375 L 175.0625 -94.890625 L 88.609375 -94.890625 L 88.609375 0 L 28.34375 0 L 28.34375 -252.734375 L 179.1875 -252.734375 L 179.1875 -205.375 Z M 88.609375 -205.375 "/></g></g></g><g fill="#beff48" fill-opacity="1"><g transform="translate(964.621345, 397.377403)"><g><path d="M 137.578125 -205.375 L 137.578125 0 L 77.671875 0 L 77.671875 -205.375 L 5.203125 -205.375 L 5.203125 -252.734375 L 210.03125 -252.734375 L 210.03125 -205.375 Z M 137.578125 -205.375 "/></g></g></g><g fill="#beff48" fill-opacity="1"><g transform="translate(1185.062555, 397.377403)"><g><path d="M 141.15625 -101.34375 L 141.15625 0 L 81.609375 0 L 81.609375 -101.34375 L -1.078125 -252.734375 L 62.953125 -252.734375 L 112.640625 -148.6875 L 163.046875 -252.734375 L 224.03125 -252.734375 Z M 141.15625 -101.34375 "/></g></g></g></g></g><path fill="#beff48" d="M 1459.210938 172.648438 C 1462.363281 172.648438 1464.425781 170.9375 1464.425781 167.785156 C 1464.425781 164.632812 1462.363281 163.117188 1459.132812 163.117188 L 1454.117188 163.117188 L 1454.117188 172.648438 Z M 1449.640625 159.03125 L 1459.40625 159.03125 C 1465.242188 159.03125 1468.976562 162.144531 1468.976562 167.707031 C 1468.976562 171.910156 1466.644531 174.554688 1463.335938 175.722656 L 1469.714844 186.265625 L 1464.503906 186.265625 L 1458.746094 176.65625 C 1458.707031 176.617188 1457.304688 176.65625 1457.265625 176.65625 L 1454.117188 176.65625 L 1454.117188 186.265625 L 1449.640625 186.265625 L 1449.640625 159.03125 " fill-opacity="1" fill-rule="nonzero"/><g clip-path="url(#c20718b297)"><path fill="#beff48" d="M 1458.804688 149.867188 C 1455.730469 149.867188 1452.746094 150.46875 1449.941406 151.65625 C 1447.230469 152.800781 1444.796875 154.441406 1442.707031 156.535156 C 1440.613281 158.625 1438.972656 161.0625 1437.824219 163.773438 C 1436.640625 166.578125 1436.039062 169.558594 1436.039062 172.632812 C 1436.039062 175.707031 1436.640625 178.6875 1437.824219 181.492188 C 1438.972656 184.203125 1440.613281 186.640625 1442.707031 188.730469 C 1444.796875 190.824219 1447.230469 192.464844 1449.941406 193.609375 C 1452.746094 194.796875 1455.730469 195.398438 1458.804688 195.398438 C 1461.878906 195.398438 1464.859375 194.796875 1467.664062 193.609375 C 1470.375 192.464844 1472.808594 190.824219 1474.902344 188.730469 C 1476.992188 186.640625 1478.636719 184.203125 1479.78125 181.492188 C 1480.96875 178.6875 1481.570312 175.707031 1481.570312 172.632812 C 1481.570312 169.558594 1480.96875 166.578125 1479.78125 163.773438 C 1478.636719 161.0625 1476.992188 158.625 1474.902344 156.535156 C 1472.808594 154.441406 1470.375 152.800781 1467.664062 151.65625 C 1464.859375 150.46875 1461.878906 149.867188 1458.804688 149.867188 Z M 1458.804688 200.117188 C 1455.09375 200.117188 1451.496094 199.390625 1448.105469 197.957031 C 1444.832031 196.574219 1441.890625 194.589844 1439.367188 192.066406 C 1436.847656 189.542969 1434.863281 186.605469 1433.480469 183.332031 C 1432.046875 179.941406 1431.320312 176.34375 1431.320312 172.632812 C 1431.320312 168.921875 1432.046875 165.324219 1433.480469 161.933594 C 1434.863281 158.660156 1436.847656 155.722656 1439.367188 153.199219 C 1441.890625 150.675781 1444.832031 148.695312 1448.105469 147.308594 C 1451.496094 145.875 1455.09375 145.148438 1458.804688 145.148438 C 1462.511719 145.148438 1466.113281 145.875 1469.503906 147.308594 C 1472.777344 148.695312 1475.714844 150.675781 1478.238281 153.199219 C 1480.761719 155.722656 1482.742188 158.660156 1484.128906 161.933594 C 1485.5625 165.324219 1486.289062 168.921875 1486.289062 172.632812 C 1486.289062 176.34375 1485.5625 179.941406 1484.128906 183.332031 C 1482.742188 186.605469 1480.761719 189.542969 1478.238281 192.066406 C 1475.714844 194.589844 1472.777344 196.574219 1469.503906 197.957031 C 1466.113281 199.390625 1462.511719 200.117188 1458.804688 200.117188 " fill-opacity="1" fill-rule="nonzero"/></g><g clip-path="url(#2806dd8666)"><g transform="matrix(1, 0, 0, 1, 859, 144)"><g clip-path="url(#f2f78ddc12)"><g clip-path="url(#0ded295690)"><path fill="#beff48" d="M 0.972656 0.402344 L 378.464844 0.402344 L 378.464844 72.25 L 0.972656 72.25 Z M 0.972656 0.402344 " fill-opacity="1" fill-rule="nonzero"/></g></g></g></g></svg>